<?xml version="1.0" standalone="no"?>
<!DOCTYPE svg PUBLIC "-//W3C//DTD SVG 20010904//EN"
 "http://www.w3.org/TR/2001/REC-SVG-20010904/DTD/svg10.dtd">
<svg version="1.0" xmlns="http://www.w3.org/2000/svg"
 width="1299.000000pt" height="1299.000000pt" viewBox="0 0 1299.000000 1299.000000"
 preserveAspectRatio="xMidYMid meet">
<metadata>
Created by potrace 1.14, written by Peter Selinger 2001-2017
</metadata>
<g transform="translate(0.000000,1299.000000) scale(0.100000,-0.100000)"
fill="#000000" stroke="none">
<path d="M2087 12673 c-3 -5 -5 -342 -5 -751 l0 -742 22 -6 c12 -3 51 -4 86
-2 l65 3 3 328 2 327 355 0 355 0 0 -320 c0 -366 -9 -336 101 -339 46 -1 69 2
77 12 9 11 11 201 10 753 l-3 739 -70 3 c-38 2 -80 0 -92 -3 l-23 -5 0 -330
c0 -257 -3 -330 -12 -331 -15 -1 -680 -1 -690 0 -5 1 -8 152 -8 336 l0 335
-84 0 c-47 0 -87 -3 -89 -7z"/>
<path d="M6081 12666 c-8 -10 -11 -80 -9 -255 2 -133 0 -241 -3 -241 -4 0 -12
7 -20 16 -21 25 -104 63 -176 80 -123 29 -277 0 -341 -64 -11 -11 -23 -21 -28
-23 -25 -11 -102 -155 -89 -167 3 -3 -1 -12 -8 -20 -13 -17 -24 -470 -12 -500
4 -9 9 -29 10 -43 5 -48 56 -146 98 -187 23 -23 69 -54 102 -69 54 -25 71 -28
170 -28 120 0 189 16 254 61 l36 24 7 -31 c3 -17 12 -35 20 -40 22 -14 144
-11 157 5 8 9 10 215 9 752 l-3 739 -81 3 c-61 2 -84 -1 -93 -12z m-120 -591
c24 -17 54 -46 66 -65 13 -19 27 -40 32 -46 5 -6 10 -109 10 -230 2 -226 -4
-271 -44 -310 -7 -8 -15 -17 -17 -21 -5 -13 -71 -60 -94 -67 -36 -11 -158 -9
-189 3 -55 22 -97 63 -124 120 -25 55 -26 61 -26 261 0 187 2 209 21 250 26
55 67 97 119 122 31 14 58 18 122 16 72 -3 86 -6 124 -33z"/>
<path d="M3725 12266 c-55 -13 -152 -51 -165 -66 -3 -3 -21 -16 -41 -29 -42
-28 -61 -54 -54 -73 7 -17 100 -78 120 -78 8 0 35 13 61 29 46 30 156 61 214
61 104 0 199 -65 225 -153 8 -28 15 -67 15 -86 l0 -36 -157 0 c-212 0 -289 -8
-356 -39 -112 -51 -168 -138 -175 -272 -6 -119 15 -182 88 -255 81 -82 151
-104 325 -103 126 0 165 8 255 48 10 4 18 -1 25 -16 9 -20 18 -23 83 -26 47
-2 78 1 88 8 12 10 14 65 14 334 0 353 -8 452 -41 541 -35 93 -145 188 -229
197 -14 2 -28 7 -31 11 -11 16 -201 18 -264 3z m375 -733 c0 -71 -4 -133 -8
-139 -21 -33 -105 -53 -233 -55 -115 -3 -181 16 -230 67 -31 33 -34 40 -34 99
0 59 3 67 33 98 19 19 48 39 65 45 18 5 116 10 220 11 l187 1 0 -127z"/>
<path d="M4951 12265 c-69 -19 -144 -61 -182 -99 l-29 -30 0 62 0 63 -87 -3
-88 -3 -1 -538 -2 -537 22 -6 c12 -3 51 -4 86 -2 l65 3 5 380 c5 367 6 381 27
421 28 53 83 100 130 113 21 6 70 11 109 11 61 0 81 -5 130 -30 32 -17 63 -29
69 -26 7 2 33 32 58 66 38 51 45 65 37 81 -12 22 -106 73 -120 64 -4 -3 -10 0
-12 6 -6 18 -156 21 -217 4z"/>
<path d="M8446 12271 c-4 -5 -13 -8 -20 -5 -28 11 -155 -35 -221 -80 -30 -21
-75 -67 -75 -76 1 -19 98 -90 124 -90 8 0 36 13 62 29 46 30 156 61 214 61
104 0 199 -65 225 -153 8 -28 15 -67 15 -86 l0 -36 -157 0 c-217 0 -289 -8
-357 -40 -116 -55 -168 -138 -173 -275 -5 -122 16 -179 87 -251 81 -82 151
-104 325 -103 126 0 165 8 255 48 10 4 18 -1 25 -16 9 -21 17 -23 85 -25 41
-1 80 3 87 9 9 7 12 101 9 391 -3 357 -5 386 -24 448 -27 81 -67 137 -127 179
-44 30 -136 67 -172 70 -143 10 -182 10 -187 1z m324 -738 c0 -71 -4 -133 -8
-139 -23 -34 -123 -57 -247 -55 -110 1 -170 20 -216 67 -31 33 -34 40 -34 99
0 59 3 67 33 98 19 19 48 39 65 45 18 5 116 10 220 11 l187 1 0 -127z"/>
<path d="M9648 12273 c-16 -2 -28 -9 -28 -14 0 -6 -5 -7 -11 -4 -16 10 -132
-50 -168 -87 l-31 -32 0 62 0 63 -87 -3 -88 -3 -3 -534 c-2 -421 0 -536 10
-543 16 -10 139 -10 155 0 9 5 13 106 15 382 3 364 4 376 25 416 28 53 83 100
130 113 21 6 70 11 109 11 61 0 81 -5 130 -30 32 -17 63 -29 69 -26 7 2 33 32
58 66 38 51 45 65 37 81 -12 21 -91 64 -136 75 -39 8 -153 13 -186 7z"/>
<path d="M10421 12269 c-167 -33 -293 -161 -336 -341 -20 -87 -20 -353 0 -433
37 -142 104 -226 235 -294 76 -40 81 -41 179 -41 160 0 266 32 378 116 64 47
66 67 16 115 -68 63 -68 63 -105 37 -18 -13 -35 -26 -38 -29 -9 -11 -84 -46
-115 -53 -50 -13 -166 -7 -216 9 -91 31 -159 121 -174 233 l-7 52 362 0 362 0
-5 148 c-5 149 -16 203 -62 292 -46 88 -174 181 -257 184 -21 0 -38 4 -38 9 0
9 -123 7 -179 -4z m200 -180 c48 -16 93 -52 119 -94 27 -43 61 -173 48 -181
-11 -7 -537 -9 -544 -2 -9 10 19 115 44 162 29 54 73 92 129 112 47 16 158 18
204 3z"/>
<path d="M6454 12246 c-3 -8 43 -164 101 -347 59 -184 134 -419 167 -524 33
-104 65 -193 70 -196 20 -12 135 -10 145 3 6 7 65 171 133 363 67 193 125 353
129 357 3 4 62 -153 131 -349 69 -196 131 -362 138 -370 8 -8 38 -13 78 -13
57 0 66 3 74 23 21 46 330 1029 330 1048 0 18 -6 20 -92 17 l-93 -3 -41 -140
c-22 -77 -74 -256 -115 -397 -41 -141 -77 -251 -80 -245 -3 7 -66 186 -139
400 l-133 387 -53 0 c-29 0 -56 -4 -59 -10 -6 -10 -126 -354 -223 -642 -26
-76 -49 -138 -52 -138 -3 0 -56 178 -119 395 l-114 395 -89 0 c-67 0 -90 -3
-94 -14z"/>
<path d="M1303 10826 c-37 -14 -107 -82 -98 -96 3 -6 1 -10 -4 -10 -8 0 -10
-1006 -9 -3409 l3 -3410 21 -28 c11 -15 37 -37 58 -49 l37 -21 1950 1 c1134 1
1953 -3 1956 -8 3 -5 6 -157 6 -338 l0 -328 -24 -21 c-13 -11 -51 -46 -84 -78
-33 -32 -112 -104 -175 -160 -63 -57 -141 -130 -172 -162 -32 -33 -66 -59 -77
-59 -28 0 -91 -58 -110 -101 -28 -63 -9 -199 27 -191 7 1 11 -2 10 -7 -2 -5 1
-9 5 -10 4 0 15 -7 23 -16 9 -8 22 -15 30 -15 8 0 14 -4 14 -10 0 -5 7 -6 17
-3 9 4 14 2 11 -3 -7 -11 3513 -10 3587 1 28 4 60 13 71 21 27 16 67 80 60 93
-4 5 -3 12 2 15 13 8 5 102 -12 134 -17 34 -80 91 -101 93 -8 1 -19 2 -24 3
-5 0 -30 20 -54 43 -25 24 -48 43 -50 43 -3 0 -22 17 -43 37 -22 21 -69 65
-105 98 -36 33 -110 101 -165 152 l-99 91 1 334 c0 184 3 339 6 344 5 7 1047
11 1134 5 6 -1 14 -21 17 -46 22 -160 167 -317 337 -366 34 -10 184 -13 620
-14 480 -2 602 -5 680 -19 3 -1 27 -12 54 -25 59 -29 151 -120 168 -167 6 -19
15 -34 18 -34 4 0 7 -6 7 -12 0 -7 6 -32 12 -56 14 -49 9 -62 -19 -57 -11 2
-20 -2 -20 -8 0 -8 -3 -8 -8 -2 -4 6 -16 11 -27 11 -11 0 -23 -5 -27 -11 -5
-7 -8 -6 -8 1 0 6 -7 11 -15 11 -8 0 -15 -5 -15 -11 0 -7 -3 -8 -8 -1 -4 6
-16 11 -27 11 -11 0 -23 -5 -27 -11 -5 -7 -8 -7 -8 1 0 5 -11 10 -25 10 -14 0
-25 -5 -25 -10 0 -8 -3 -8 -8 -1 -4 6 -16 11 -27 11 -11 0 -23 -5 -27 -11 -5
-7 -8 -7 -8 0 0 6 -16 11 -35 11 -19 0 -35 -5 -35 -11 0 -5 -4 -4 -9 3 -11 17
-21 17 -32 0 -5 -8 -9 -9 -9 -2 0 12 -10 11 -102 -1 -157 -20 -300 -115 -357
-235 -25 -53 -26 -62 -27 -253 -1 -160 1 -201 13 -213 12 -12 153 -14 973 -14
l959 0 11 21 c8 14 10 85 8 212 -3 183 -4 195 -29 248 -25 53 -145 187 -156
175 -3 -3 -12 2 -20 10 -8 8 -19 12 -24 9 -5 -4 -9 -2 -9 3 0 13 -115 46 -139
39 -12 -3 -19 -2 -17 2 3 4 -13 7 -35 7 -21 -1 -39 -5 -39 -11 0 -5 -4 -4 -9
3 -11 17 -21 17 -32 0 -5 -7 -9 -8 -9 -2 0 6 -7 11 -15 11 -8 0 -15 -5 -15
-11 0 -7 -3 -7 -8 -1 -10 14 -72 14 -72 1 0 -8 -3 -8 -8 0 -9 13 -104 12 -114
-1 -5 -6 -8 -6 -8 1 0 6 -7 11 -15 11 -8 0 -15 -5 -15 -11 0 -7 -3 -8 -8 -1
-9 14 -65 14 -74 0 -5 -7 -8 -6 -8 1 0 7 -13 10 -30 9 -31 -3 -43 7 -45 35
-13 159 -141 320 -299 377 -22 8 -50 17 -61 20 -11 4 -285 8 -608 9 -323 1
-607 6 -630 10 -23 4 -45 7 -49 6 -5 -1 -8 2 -8 7 0 5 -11 12 -24 15 -39 10
-124 83 -160 139 -36 54 -75 162 -63 174 4 3 609 6 1344 6 1263 0 1340 1 1373
18 38 19 67 49 79 82 5 12 8 1552 7 3423 l-1 3401 -26 34 c-15 19 -39 40 -55
48 -16 7 -37 17 -46 22 -28 14 -10346 9 -10385 -5z m9953 -3309 l-1 -2757
-4750 0 -4750 0 1 52 c1 29 4 65 6 81 3 15 1 30 -4 33 -4 3 -5 11 -1 17 11 17
10 90 0 105 -6 7 -6 12 0 12 11 0 11 29 -1 48 -4 6 -3 12 2 12 10 0 9 30 -2
48 -4 6 -3 12 1 12 5 0 8 19 6 43 -5 65 -5 119 0 155 2 17 0 32 -5 32 -5 0 -6
5 -2 12 10 16 11 87 3 114 -4 11 -3 27 1 34 5 8 4 22 -1 32 -6 11 -6 18 0 18
5 0 8 11 7 25 0 14 -5 25 -9 25 -5 0 -5 6 -1 12 12 19 12 48 0 48 -7 0 -6 4 1
11 6 6 8 23 3 44 -4 19 -6 36 -4 38 9 9 11 67 2 67 -5 0 -6 6 -2 12 10 16 10
50 1 65 -4 6 -3 14 1 17 5 3 7 18 5 33 -5 32 -5 28 0 111 1 34 -1 62 -6 62 -4
0 -5 6 -1 12 11 18 12 48 2 48 -5 0 -6 6 -2 12 11 18 12 48 2 48 -5 0 -6 6 -2
12 12 19 12 48 0 48 -7 0 -6 4 1 11 6 6 8 23 3 44 -4 19 -6 36 -4 38 9 9 11
67 2 67 -5 0 -6 5 -2 12 10 15 11 99 2 119 -3 8 -3 21 2 29 5 8 4 22 -1 32 -5
10 -6 18 -1 18 10 0 9 30 -2 48 -4 6 -3 12 2 12 10 0 9 30 -2 48 -4 6 -4 12 1
12 9 0 9 112 0 126 -3 6 -2 16 3 24 5 8 5 22 -1 32 -5 10 -6 18 -1 18 10 0 9
30 -2 48 -4 6 -3 12 2 12 10 0 9 30 -2 48 -4 6 -4 12 1 12 10 0 9 91 -1 108
-4 7 -3 12 2 12 10 0 9 30 -2 48 -4 6 -3 12 2 12 10 0 9 30 -2 48 -4 6 -3 12
1 12 5 0 8 19 6 43 -5 65 -5 119 0 155 2 17 0 32 -5 32 -5 0 -6 5 -2 12 10 16
11 87 3 114 -4 11 -3 27 1 34 5 8 4 22 -1 32 -6 11 -6 18 0 18 5 0 8 11 7 25
0 14 -5 25 -9 25 -5 0 -5 6 -1 12 12 19 12 48 0 48 -7 0 -6 4 1 11 6 6 8 23 3
44 -4 19 -6 36 -4 38 9 9 11 67 2 67 -5 0 -6 5 -2 12 10 15 11 99 1 105 -4 2
-4 10 0 16 10 17 11 47 1 47 -5 0 -4 9 2 21 9 15 8 24 -1 35 -6 8 -7 14 -2 14
5 0 8 19 6 43 -4 42 -3 83 1 122 1 11 -1 27 -5 36 -4 8 -4 21 1 29 5 8 4 22
-1 32 -5 10 -6 18 -1 18 10 0 9 30 -2 48 -4 6 -3 12 2 12 10 0 9 30 -2 48 -4
6 -4 12 1 12 9 0 9 112 0 126 -3 6 -2 16 3 24 5 8 5 22 -1 32 -5 10 -6 18 -1
18 10 0 9 30 -2 48 -4 6 -3 12 2 12 10 0 9 30 -2 48 -4 7 -2 12 4 12 6 0 9 4
6 9 -7 11 -9 75 -3 114 2 15 0 27 -5 27 -5 0 -6 5 -2 12 10 16 11 87 3 114 -4
11 -3 27 1 34 5 8 4 22 -1 32 -6 11 -6 18 0 18 5 0 8 11 7 25 0 14 -5 25 -9
25 -5 0 -5 6 -1 12 12 19 12 48 0 48 -7 0 -6 4 1 11 6 6 8 23 3 44 -4 19 -6
36 -4 38 9 9 11 67 2 67 -5 0 -6 6 -2 12 10 16 10 50 1 65 -4 6 -3 14 1 17 5
3 7 18 5 33 -5 32 -5 28 0 111 1 34 -1 62 -6 62 -4 0 -5 6 -1 12 11 18 12 48
2 48 -5 0 -6 6 -2 12 12 19 12 48 1 48 -6 0 -6 5 1 13 5 6 6 21 2 32 -4 11 -4
28 1 37 6 10 5 19 -1 23 -6 4 -8 9 -6 13 2 4 2141 7 4753 7 l4750 0 -1 -2758z"/>
<path d="M7820 9853 c-307 -60 -551 -255 -664 -533 -66 -161 -91 -357 -62
-497 l16 -82 -301 -300 -302 -300 -248 249 -249 248 0 46 c0 74 30 125 135
231 59 59 120 105 193 147 64 36 170 88 180 88 18 0 107 43 138 67 48 36 78
114 77 197 -1 65 -3 71 -40 108 -90 93 -203 161 -348 210 -104 35 -471 32
-539 -4 -12 -6 -30 -12 -41 -14 -73 -8 -324 -127 -456 -215 -154 -103 -403
-335 -512 -476 -12 -15 -32 -39 -45 -53 -51 -53 -72 -146 -48 -205 15 -36 15
-38 -11 -72 -14 -19 -45 -47 -68 -63 -37 -25 -43 -27 -65 -14 -35 19 -109 17
-148 -4 -40 -22 -151 -130 -189 -185 -26 -38 -28 -47 -28 -137 1 -96 1 -97 45
-175 78 -136 247 -299 376 -361 63 -30 80 -34 153 -34 52 0 92 5 109 14 39 21
237 225 257 265 12 24 16 49 13 83 -5 46 -3 49 27 68 45 28 133 26 203 -3 44
-18 92 -61 275 -244 122 -122 241 -241 264 -265 l42 -44 -294 -295 -295 -294
-57 5 c-32 3 -119 5 -193 4 -183 -1 -315 -35 -438 -111 -29 -18 -57 -33 -63
-33 -24 0 -206 -198 -247 -270 -24 -41 -47 -82 -53 -90 -13 -21 -15 -27 -34
-95 -9 -33 -23 -81 -31 -107 -22 -74 -19 -304 6 -387 34 -114 114 -174 209
-156 59 11 80 28 250 198 l163 164 37 -9 c20 -5 58 -16 85 -24 26 -8 57 -14
67 -14 19 0 25 -16 64 -160 l14 -55 -62 -58 c-241 -227 -297 -293 -304 -360
-4 -31 0 -54 15 -83 50 -97 121 -124 328 -124 223 0 361 42 538 165 97 67 230
235 285 357 54 122 66 188 66 363 0 88 -3 177 -7 197 l-6 36 294 294 c162 161
298 293 302 293 4 0 20 -10 34 -21 25 -19 26 -25 17 -55 -5 -19 -7 -55 -3 -81
5 -41 15 -57 82 -129 43 -46 90 -94 106 -108 17 -14 311 -305 654 -646 343
-341 633 -625 645 -632 12 -7 50 -12 85 -13 l63 0 82 77 c120 112 438 432 465
467 17 24 22 43 22 92 0 57 -3 66 -39 111 -21 26 -353 362 -737 745 -766 764
-714 719 -823 704 -43 -6 -50 -4 -74 22 l-26 27 297 298 298 298 65 -10 c172
-28 404 0 554 69 77 35 184 117 272 209 85 88 146 193 192 324 42 121 52 364
21 504 -19 84 -93 143 -177 143 -69 0 -101 -23 -286 -206 l-162 -161 -95 24
c-52 13 -100 29 -106 36 -10 10 -22 49 -53 173 -8 29 -4 35 73 108 147 139
244 243 263 280 10 20 14 49 11 90 -3 51 -9 69 -36 102 -19 24 -48 46 -70 54
-37 12 -343 23 -392 13z m-1655 -442 c39 -8 39 -8 15 -18 -14 -6 -42 -23 -63
-37 -21 -14 -40 -26 -43 -26 -10 0 -170 -140 -220 -192 -59 -63 -146 -212
-164 -283 -7 -27 -17 -55 -22 -62 -13 -17 -2 -201 15 -250 l14 -42 -38 -37
-38 -37 -28 19 c-104 68 -188 93 -323 94 -135 2 -229 -26 -308 -93 -31 -26
-33 -27 -13 -5 62 70 131 245 131 334 0 17 29 58 94 132 85 97 127 137 236
229 240 203 549 315 755 274z m1440 -58 c-11 -30 -17 -95 -9 -112 4 -9 9 -27
11 -41 2 -13 9 -28 15 -31 7 -4 6 -9 -1 -14 -8 -4 -9 -11 -3 -18 10 -13 18
-38 32 -97 4 -19 16 -62 25 -95 9 -33 19 -69 21 -80 3 -11 7 -27 9 -35 2 -8 4
-18 4 -22 3 -29 110 -116 124 -102 3 3 14 1 26 -5 19 -11 82 -23 128 -25 11
-1 19 -4 17 -8 -6 -9 34 -21 46 -13 5 3 10 1 10 -4 0 -6 9 -11 21 -11 11 0 28
-4 37 -9 9 -5 31 -11 47 -14 17 -3 41 -8 55 -11 63 -13 102 -13 107 0 2 7 11
10 19 7 9 -3 33 13 61 43 52 54 49 44 -11 -33 -22 -29 -46 -53 -52 -53 -6 0
-18 -7 -25 -17 -16 -19 -119 -87 -134 -88 -5 -1 -23 -6 -38 -13 -16 -7 -35
-12 -43 -12 -8 0 -14 -4 -14 -8 0 -4 -45 -8 -100 -9 -55 0 -100 4 -100 8 0 5
-10 9 -22 9 -13 0 -43 10 -68 21 -46 21 -147 29 -159 13 -3 -5 -11 -9 -18 -9
-10 0 -163 -140 -163 -150 0 -7 -83 -85 -91 -85 -5 0 -9 -7 -9 -15 0 -8 -4
-15 -8 -15 -14 0 -197 -190 -194 -201 1 -6 -1 -8 -6 -5 -12 7 -144 -129 -134
-139 4 -5 2 -5 -5 -2 -6 4 -35 -17 -66 -50 l-56 -56 -69 68 -70 69 57 59 c31
33 89 91 129 131 41 39 113 111 160 159 48 49 122 123 164 165 42 42 74 80 71
85 -3 6 -1 7 4 4 6 -4 42 26 79 66 l69 72 -2 66 c-1 37 -8 80 -16 95 -8 16
-17 44 -20 61 -3 17 -8 37 -12 43 -6 10 -7 113 -1 155 9 63 20 103 32 123 8
12 12 22 8 22 -3 0 1 11 10 25 9 14 14 31 10 37 -4 7 -3 8 4 4 6 -4 29 18 53
54 41 58 69 79 54 43z m90 -323 c3 -6 -1 -7 -9 -4 -18 7 -21 14 -7 14 6 0 13
-4 16 -10z m-145 -664 c0 -2 -8 -10 -17 -17 -16 -13 -17 -12 -4 4 13 16 21 21
21 13z m-2711 -33 c-43 -47 -66 -98 -74 -162 -4 -33 -11 -64 -16 -67 -14 -8
-56 22 -112 79 -55 56 -54 57 32 83 61 17 166 68 176 84 3 5 9 10 12 10 4 0
-5 -12 -18 -27z m2000 -1036 c94 -97 103 -109 89 -123 -13 -14 -44 14 -304
273 -159 159 -326 327 -370 373 -45 47 -99 101 -120 121 -22 20 -83 81 -138
136 -92 94 -97 101 -85 122 13 21 29 6 419 -387 223 -224 452 -456 509 -515z
m-509 -58 c25 -23 40 -39 34 -36 -6 3 -56 -39 -112 -93 -56 -55 -99 -100 -97
-100 2 0 -18 -21 -45 -46 -27 -26 -47 -50 -44 -55 3 -5 1 -8 -4 -7 -18 5 -184
-163 -177 -180 4 -12 3 -12 -9 -3 -9 7 -15 8 -18 2 -1 -6 -49 -56 -104 -113
-123 -125 -138 -151 -129 -224 3 -30 10 -54 15 -54 5 0 12 -17 15 -37 4 -21
12 -54 17 -73 6 -19 11 -48 11 -65 -2 -81 -7 -131 -16 -142 -5 -7 -7 -24 -5
-38 3 -13 2 -22 -2 -20 -10 6 -23 -43 -15 -56 4 -5 1 -8 -6 -7 -7 2 -19 -10
-28 -27 -8 -16 -20 -36 -27 -43 -7 -7 -28 -33 -45 -57 -37 -52 -58 -61 -29
-12 20 32 28 107 11 107 -5 0 -17 34 -26 75 -10 41 -21 73 -24 70 -4 -2 -6 9
-5 26 1 16 -2 29 -6 29 -5 0 -7 12 -5 26 1 14 -4 31 -11 38 -7 8 -11 16 -8 19
3 2 -8 44 -25 92 -34 101 -67 141 -126 155 -22 6 -63 18 -92 26 -58 17 -107
27 -140 28 -11 1 -19 4 -16 9 2 4 -5 7 -17 7 -12 0 -35 7 -52 16 -34 18 -159
30 -186 18 -9 -4 -23 -8 -30 -10 -7 -1 -27 -19 -46 -40 -27 -31 -34 -34 -39
-20 -4 10 -3 15 3 11 5 -3 22 12 37 33 16 22 44 50 63 63 19 13 42 31 51 39
39 34 49 40 64 40 8 0 15 4 15 8 0 10 69 33 115 40 16 2 33 9 37 15 4 7 8 8 8
3 0 -5 6 -3 13 3 8 6 16 8 19 6 10 -11 48 -14 48 -4 0 6 8 6 20 -1 11 -6 20
-8 20 -4 0 3 6 2 13 -3 12 -11 17 -12 79 -15 20 -2 34 -5 31 -8 -12 -12 102
-37 136 -29 19 4 38 6 41 4 4 -2 88 78 188 178 100 100 220 220 266 266 47 46
83 88 80 93 -3 5 -1 7 5 6 15 -4 141 123 134 136 -3 6 -3 8 2 4 11 -11 36 12
28 25 -3 6 -1 7 6 3 6 -4 14 -1 17 8 4 11 14 6 42 -24 21 -21 57 -57 82 -81z
m-36 -127 c3 -5 -1 -9 -9 -9 -8 0 -12 4 -9 9 3 4 7 8 9 8 2 0 6 -4 9 -8z
m1034 -117 c25 -22 49 -39 54 -37 5 1 7 -1 4 -6 -2 -4 158 -170 357 -369 199
-199 422 -423 496 -497 74 -74 139 -132 145 -129 6 3 8 2 3 -2 -4 -5 4 -20 18
-35 l25 -26 -109 -107 c-97 -96 -131 -122 -131 -99 0 4 -253 260 -562 569
-459 459 -560 564 -550 576 7 7 8 17 4 21 -4 4 0 6 8 4 8 -1 14 2 13 9 -2 7 3
10 10 8 6 -2 29 17 50 41 20 25 37 43 37 39 0 -3 15 11 33 31 17 21 31 41 30
46 -6 18 24 1 65 -37z m82 -5 c0 -5 -2 -10 -4 -10 -3 0 -8 5 -11 10 -3 6 -1
10 4 10 6 0 11 -4 11 -10z m-1580 -356 c0 -8 -19 -13 -24 -6 -3 5 1 9 9 9 8 0
15 -2 15 -3z m2670 -720 c0 -8 -19 -13 -24 -6 -3 5 1 9 9 9 8 0 15 -2 15 -3z"/>
<path d="M4546 1952 c-2 -4 -4 -341 -5 -749 0 -687 2 -742 17 -747 9 -2 62 -4
117 -3 l100 2 3 313 2 312 295 0 295 0 0 -305 c0 -281 1 -305 18 -314 29 -15
208 -13 221 3 8 9 10 217 9 752 l-3 739 -100 3 c-55 2 -110 0 -122 -3 l-23 -5
0 -315 0 -315 -295 0 -295 0 0 320 0 320 -114 0 c-63 0 -117 -3 -120 -8z"/>
<path d="M7077 1953 c-4 -3 -7 -293 -7 -644 0 -708 -1 -699 67 -778 49 -57
118 -81 238 -81 l95 0 0 114 c0 130 1 129 -86 125 -36 -2 -50 1 -60 16 -12 16
-14 128 -14 637 l0 618 -113 0 c-63 0 -117 -3 -120 -7z"/>
<path d="M8084 1551 c-50 -13 -124 -54 -155 -85 l-29 -30 0 52 0 52 -114 0
c-101 0 -115 -2 -120 -17 -2 -10 -4 -350 -4 -756 l0 -737 119 0 119 0 0 255 0
255 45 -34 c63 -49 106 -61 215 -61 81 0 103 4 151 27 113 52 175 136 205 278
12 59 15 119 12 285 -4 185 -7 218 -27 274 -25 73 -42 103 -85 149 -33 36
-121 86 -136 77 -4 -3 -10 0 -12 6 -4 13 -142 21 -184 10z m89 -235 c41 -17
72 -51 93 -101 24 -57 23 -383 0 -441 -17 -41 -69 -94 -92 -94 -8 0 -14 -4
-14 -8 0 -8 -83 -6 -136 3 -17 3 -47 21 -67 40 -50 49 -60 102 -55 315 4 207
14 240 88 278 51 26 133 30 183 8z"/>
<path d="M5926 1532 c-2 -4 -4 -169 -5 -367 0 -263 4 -378 14 -426 31 -151
118 -249 252 -284 119 -31 234 -13 316 50 l47 36 0 -34 c0 -19 6 -40 13 -46 9
-7 53 -10 118 -8 l104 2 3 543 2 543 -117 -3 -118 -3 -5 -375 c-5 -388 -6
-392 -47 -437 -37 -41 -170 -57 -237 -29 -43 18 -82 70 -95 126 -6 26 -11 187
-11 383 l0 337 -114 0 c-63 0 -117 -4 -120 -8z"/>
</g>
</svg>
